<?xml version="1.0" encoding="UTF-8" standalone="no"?>
<!-- Created with Inkscape (http://www.inkscape.org/) -->

<svg
   width="70mm"
   height="70mm"
   viewBox="0 0 70 70"
   version="1.1"
   id="svg1"
   inkscape:version="1.3 (0e150ed6c4, 2023-07-21)"
   sodipodi:docname="favicon.svg"
   xml:space="preserve"
   xmlns:inkscape="http://www.inkscape.org/namespaces/inkscape"
   xmlns:sodipodi="http://sodipodi.sourceforge.net/DTD/sodipodi-0.dtd"
   xmlns="http://www.w3.org/2000/svg"
   xmlns:svg="http://www.w3.org/2000/svg"><sodipodi:namedview
     id="namedview1"
     pagecolor="#ffffff"
     bordercolor="#000000"
     borderopacity="0.25"
     inkscape:showpageshadow="2"
     inkscape:pageopacity="0.0"
     inkscape:pagecheckerboard="0"
     inkscape:deskcolor="#d1d1d1"
     inkscape:document-units="mm"
     inkscape:zoom="2.0283687"
     inkscape:cx="-23.417833"
     inkscape:cy="124.97728"
     inkscape:window-width="2560"
     inkscape:window-height="1011"
     inkscape:window-x="0"
     inkscape:window-y="0"
     inkscape:window-maximized="1"
     inkscape:current-layer="g6" /><defs
     id="defs1" /><g
     inkscape:label="Layer 1"
     inkscape:groupmode="layer"
     id="layer1"><g
       id="g5"
       inkscape:label="pen"><path
         style="fill:#000000;fill-opacity:1;stroke-width:0.529167;stroke-linecap:square"
         d="m 207.77139,48.152018 c -4.98218,-1.199252 -11.02285,1.061045 -13.6138,6.406421 l -0.20509,-1.12985 c -0.19212,-1.40994 -3.04533,-6.102092 -5.74452,-10.206877 -1.951,-2.96699 -4.70688,-8.089388 -5.37417,-9.230519 -0.57094,-0.976372 -0.487,-4.365124 0.763,-5.415055 0.47528,-1.177482 5.79301,-5.024151 11.06683,-4.950739 2.55039,-0.130706 4.65694,1.408721 5.17479,2.237436 1.08349,1.865622 3.7533,10.540118 3.75634,10.563664 0.17756,1.374086 2.33387,7.360763 4.17662,11.725519 z"
         id="path1"
         sodipodi:nodetypes="cccsscccsc" /><path
         style="fill:#000000;fill-opacity:1;stroke-width:0.849794;stroke-linecap:square"
         d="m 192.08143,60.507098 c 1.72915,-2.832439 4.41021,-6.364607 8.64891,-8.450817 4.42477,-2.177792 9.55976,-2.325494 12.87344,-1.422756 2.83117,2.509869 5.033,5.019742 5.69826,7.529605 2.45293,5.643579 0.0891,5.63388 -0.58159,7.611444 -1.30581,-4.78501 -20.27208,-2.966963 -17.3768,7.856923 -3.0065,0.2154 -5.40052,-1.998328 -7.01159,-4.445139 -2.44999,-2.893092 -2.06155,-5.786184 -2.25063,-8.67926 z"
         id="path2"
         sodipodi:nodetypes="cscccccc" /><path
         style="fill:#000000;fill-opacity:1;stroke-width:0.849794;stroke-linecap:square"
         d="m 202.52379,72.987063 c -0.54931,-6.041753 9.34312,-10.307112 15.24225,-6.662374 l 15.82089,28.092033 0.95692,21.720488 -10.92026,-24.023747 c 0.89618,-1.429708 0.63485,-2.466354 -0.56401,-4.111061 -2.58134,-0.883731 -3.42004,0.171816 -3.76836,2.016523 -0.13775,1.358454 0.3703,2.502182 2.37777,3.147356 l 10.90218,23.843309 -21.07939,-15.55017 z"
         id="path3"
         sodipodi:nodetypes="ccccccccccc" /></g><g
       id="g6"
       inkscape:label="typewriter 1"><path
         style="fill:none;fill-opacity:1;stroke:#000000;stroke-width:1.95285;stroke-linecap:square;stroke-linejoin:miter;stroke-dasharray:none;stroke-opacity:1;paint-order:markers stroke fill"
         d="m 34.374143,37.688488 6.509043,0.02654"
         id="path5-1-3-6-9"
         sodipodi:nodetypes="cc" /><path
         style="fill:none;fill-opacity:1;stroke:#000000;stroke-width:1.95285;stroke-linecap:square;stroke-linejoin:miter;stroke-dasharray:none;stroke-opacity:1;paint-order:markers stroke fill"
         d="m 25.336247,30.011822 24.800932,-0.08978"
         id="path5-1-3"
         sodipodi:nodetypes="cc" /><path
         style="fill:none;fill-opacity:1;stroke:#000000;stroke-width:1.95285;stroke-linecap:square;stroke-linejoin:miter;stroke-dasharray:none;stroke-opacity:1;paint-order:markers stroke fill"
         d="m 31.299051,34.251135 13.01257,-0.0141"
         id="path5-1-3-6"
         sodipodi:nodetypes="cc" /><path
         style="display:inline;fill:#000000;fill-opacity:1;stroke-width:0.66329;stroke-linecap:square"
         d="m 18.165485,34.359968 c -0.923475,0.533021 -1.479799,1.205703 -1.75205,1.986434 l -5.43794,19.554165 -2.7584796,0.202146 -0.1095526,3.514998 H 67.223155 l -0.07382,-3.380875 -2.566563,0.0087 -5.39986,-19.69903 c -0.290144,-0.926018 -0.86577,-1.719809 -2.14301,-2.188728 l -9.232179,-0.02369 c -1.230798,5.272539 -3.324178,5.663465 -5.340609,6.489996 l -9.427944,-0.02301 c -4.030479,-0.609355 -4.738145,-3.669917 -5.819055,-6.527362 z"
         id="path4"
         sodipodi:nodetypes="ccccccccccccccc" /><g
         id="g7"
         inkscape:label="page"
         transform="matrix(1.2383469,0,0,1.8851516,-6.0900665,-25.056779)"><rect
           style="fill:none;fill-opacity:1;stroke:#000000;stroke-width:1.44728;stroke-linecap:square;stroke-linejoin:miter;stroke-dasharray:none;stroke-opacity:1;paint-order:markers stroke fill"
           id="rect4"
           width="26.279081"
           height="14.676839"
           x="22.172129"
           y="20.74297"
           ry="0" /><path
           style="fill:none;fill-opacity:1;stroke:#000000;stroke-width:1.27813;stroke-linecap:square;stroke-linejoin:miter;stroke-dasharray:none;stroke-opacity:1;paint-order:markers stroke fill"
           d="m 25.386506,23.562397 20.02509,-0.0329"
           id="path5" /><path
           style="fill:none;fill-opacity:1;stroke:#000000;stroke-width:1.27813;stroke-linecap:square;stroke-linejoin:miter;stroke-dasharray:none;stroke-opacity:1;paint-order:markers stroke fill"
           d="m 25.291696,26.417367 20.027451,-0.04763"
           id="path5-1"
           sodipodi:nodetypes="cc" /></g><g
         id="g9"
         inkscape:label="keyboard"
         transform="matrix(1.253461,0,0,1.253461,-6.6416572,-2.2526219)"><rect
           style="fill:#ffffff;fill-opacity:1;stroke:#ffffff;stroke-width:1.465;stroke-linecap:square;stroke-linejoin:miter;stroke-dasharray:none;stroke-opacity:1;paint-order:markers stroke fill"
           id="rect5"
           width="2.0952156"
           height="0.21196733"
           x="20.425043"
           y="37.538853"
           ry="0.03026077" /><rect
           style="fill:#ffffff;fill-opacity:1;stroke:#ffffff;stroke-width:1.465;stroke-linecap:square;stroke-linejoin:miter;stroke-dasharray:none;stroke-opacity:1;paint-order:markers stroke fill"
           id="rect5-0"
           width="2.0952156"
           height="0.21196733"
           x="26.00149"
           y="37.452969"
           ry="0.03026077" /><rect
           style="fill:#ffffff;fill-opacity:1;stroke:#ffffff;stroke-width:1.465;stroke-linecap:square;stroke-linejoin:miter;stroke-dasharray:none;stroke-opacity:1;paint-order:markers stroke fill"
           id="rect5-0-5"
           width="2.0952156"
           height="0.21196733"
           x="31.632883"
           y="37.439602"
           ry="0.03026077" /><rect
           style="fill:#ffffff;fill-opacity:1;stroke:#ffffff;stroke-width:1.465;stroke-linecap:square;stroke-linejoin:miter;stroke-dasharray:none;stroke-opacity:1;paint-order:markers stroke fill"
           id="rect5-0-5-8"
           width="2.0952156"
           height="0.21196733"
           x="37.029751"
           y="37.525967"
           ry="0.03026077" /><rect
           style="fill:#ffffff;fill-opacity:1;stroke:#ffffff;stroke-width:1.465;stroke-linecap:square;stroke-linejoin:miter;stroke-dasharray:none;stroke-opacity:1;paint-order:markers stroke fill"
           id="rect5-0-5-8-6"
           width="2.0952156"
           height="0.21196733"
           x="42.480526"
           y="37.504826"
           ry="0.03026077" /><rect
           style="fill:#ffffff;fill-opacity:1;stroke:#ffffff;stroke-width:1.465;stroke-linecap:square;stroke-linejoin:miter;stroke-dasharray:none;stroke-opacity:1;paint-order:markers stroke fill"
           id="rect5-0-5-8-6-7"
           width="2.0952156"
           height="0.21196733"
           x="47.951824"
           y="37.479206"
           ry="0.03026077" /><rect
           style="fill:#ffffff;fill-opacity:1;stroke:#ffffff;stroke-width:1.465;stroke-linecap:square;stroke-linejoin:miter;stroke-dasharray:none;stroke-opacity:1;paint-order:markers stroke fill"
           id="rect5-03"
           width="2.0952156"
           height="0.21196733"
           x="20.499933"
           y="43.640812"
           ry="0.03026077" /><rect
           style="fill:#ffffff;fill-opacity:1;stroke:#ffffff;stroke-width:1.465;stroke-linecap:square;stroke-linejoin:miter;stroke-dasharray:none;stroke-opacity:1;paint-order:markers stroke fill"
           id="rect5-0-6"
           width="2.0952156"
           height="0.21196733"
           x="26.07638"
           y="43.554928"
           ry="0.03026077" /><rect
           style="fill:#ffffff;fill-opacity:1;stroke:#ffffff;stroke-width:1.465;stroke-linecap:square;stroke-linejoin:miter;stroke-dasharray:none;stroke-opacity:1;paint-order:markers stroke fill"
           id="rect5-0-5-1"
           width="2.0952156"
           height="0.21196733"
           x="31.707773"
           y="43.541561"
           ry="0.03026077" /><rect
           style="fill:#ffffff;fill-opacity:1;stroke:#ffffff;stroke-width:1.465;stroke-linecap:square;stroke-linejoin:miter;stroke-dasharray:none;stroke-opacity:1;paint-order:markers stroke fill"
           id="rect5-0-5-8-0"
           width="2.0952156"
           height="0.21196733"
           x="37.104641"
           y="43.627926"
           ry="0.03026077" /><rect
           style="fill:#ffffff;fill-opacity:1;stroke:#ffffff;stroke-width:1.465;stroke-linecap:square;stroke-linejoin:miter;stroke-dasharray:none;stroke-opacity:1;paint-order:markers stroke fill"
           id="rect5-0-5-8-6-6"
           width="2.0952156"
           height="0.21196733"
           x="42.555416"
           y="43.606785"
           ry="0.03026077" /><rect
           style="fill:#ffffff;fill-opacity:1;stroke:#ffffff;stroke-width:1.465;stroke-linecap:square;stroke-linejoin:miter;stroke-dasharray:none;stroke-opacity:1;paint-order:markers stroke fill"
           id="rect5-0-5-8-6-7-3"
           width="2.0952156"
           height="0.21196733"
           x="48.026714"
           y="43.581165"
           ry="0.03026077" /><rect
           style="fill:#ffffff;fill-opacity:1;stroke:#ffffff;stroke-width:1.465;stroke-linecap:square;stroke-linejoin:miter;stroke-dasharray:none;stroke-opacity:1;paint-order:markers stroke fill"
           id="rect5-1"
           width="2.0952156"
           height="0.21196733"
           x="23.299631"
           y="40.744495"
           ry="0.03026077" /><rect
           style="fill:#ffffff;fill-opacity:1;stroke:#ffffff;stroke-width:1.465;stroke-linecap:square;stroke-linejoin:miter;stroke-dasharray:none;stroke-opacity:1;paint-order:markers stroke fill"
           id="rect5-0-55"
           width="2.0952156"
           height="0.21196733"
           x="28.876078"
           y="40.658611"
           ry="0.03026077" /><rect
           style="fill:#ffffff;fill-opacity:1;stroke:#ffffff;stroke-width:1.465;stroke-linecap:square;stroke-linejoin:miter;stroke-dasharray:none;stroke-opacity:1;paint-order:markers stroke fill"
           id="rect5-0-5-4"
           width="2.0952156"
           height="0.21196733"
           x="34.507488"
           y="40.645237"
           ry="0.03026077" /><rect
           style="fill:#ffffff;fill-opacity:1;stroke:#ffffff;stroke-width:1.465;stroke-linecap:square;stroke-linejoin:miter;stroke-dasharray:none;stroke-opacity:1;paint-order:markers stroke fill"
           id="rect5-0-5-8-7"
           width="2.0952156"
           height="0.21196733"
           x="39.947918"
           y="40.657978"
           ry="0.03026077" /><rect
           style="fill:#ffffff;fill-opacity:1;stroke:#ffffff;stroke-width:1.465;stroke-linecap:square;stroke-linejoin:miter;stroke-dasharray:none;stroke-opacity:1;paint-order:markers stroke fill"
           id="rect5-0-5-8-6-65"
           width="2.0952156"
           height="0.21196733"
           x="45.398693"
           y="40.636837"
           ry="0.03026077" /></g><g
         id="g8"
         inkscape:label="left"
         transform="matrix(1.253461,0,0,1.253461,-6.6416572,-2.2526219)"><rect
           style="fill:#000000;fill-opacity:1;stroke:none;stroke-width:1.68362;stroke-linecap:square;stroke-linejoin:miter;stroke-dasharray:none;stroke-opacity:1;paint-order:markers stroke fill"
           id="rect7-4"
           width="2.2737021"
           height="4.6721687"
           x="12.019476"
           y="27.981649"
           ry="0.44271094" /><path
           style="fill:#000000;fill-opacity:1;stroke:none;stroke-width:1.465;stroke-linecap:square;stroke-linejoin:miter;stroke-dasharray:none;stroke-opacity:1;paint-order:markers stroke fill"
           d="m 16.865059,33.558621 c 0.09039,-1.212919 0.314498,-2.575111 0.87074,-3.507692 0.700533,-1.230533 1.647108,-1.576445 2.887734,-1.637257 l 0.01092,-1.428982 -4.798166,-0.0077 c -0.478797,0.07825 -0.856962,0.516053 -0.827964,0.914577 l -0.04032,4.942885 c 0.07319,0.305609 0.171721,0.598958 0.620792,0.722755 z"
           id="path7"
           sodipodi:nodetypes="ccccccccc" /></g><g
         id="g10"
         inkscape:label="right"
         transform="matrix(1.253461,0,0,1.253461,-6.6416572,-2.2526219)"><path
           style="fill:#000000;fill-opacity:1;stroke:none;stroke-width:1.465;stroke-linecap:square;stroke-linejoin:miter;stroke-dasharray:none;stroke-opacity:1;paint-order:markers stroke fill"
           d="m 53.859343,33.689797 c -0.09039,-1.212919 -0.314498,-2.575111 -0.87074,-3.507692 -0.700533,-1.230533 -1.647108,-1.576445 -2.887734,-1.637257 l -0.01092,-1.428982 4.798166,-0.0077 c 0.478797,0.07825 0.856962,0.516053 0.827964,0.914577 l 0.04032,4.942885 c -0.07319,0.305609 -0.171721,0.598958 -0.620792,0.722755 z"
           id="path7-4"
           sodipodi:nodetypes="ccccccccc" /><rect
           style="fill:#000000;fill-opacity:1;stroke:none;stroke-width:1.68362;stroke-linecap:square;stroke-linejoin:miter;stroke-dasharray:none;stroke-opacity:1;paint-order:markers stroke fill"
           id="rect7"
           width="2.2737021"
           height="4.6721687"
           x="56.254078"
           y="27.871626"
           ry="0.44271094" /><path
           style="fill:#000000;fill-opacity:1;stroke:none;stroke-width:1.465;stroke-linecap:square;stroke-linejoin:miter;stroke-dasharray:none;stroke-opacity:1;paint-order:markers stroke fill"
           d="m 12.867844,26.717693 -5.5941416,0.01069 C 6.1471899,26.268772 6.0059405,25.453651 5.702864,24.696922 c 2.6789197,0.187487 5.864439,0.192559 7.878841,1.528165 l -0.0027,1.830065 -0.702206,-0.03872 z"
           id="path10"
           sodipodi:nodetypes="ccccccc" /></g></g></g></svg>
